<?xml version="1.0" encoding="UTF-8" standalone="no"?>
<!DOCTYPE svg PUBLIC "-//W3C//DTD SVG 1.1//EN"
 "http://www.w3.org/Graphics/SVG/1.1/DTD/svg11.dtd">
<!-- Generated by graphviz version 9.0.0 (20230911.1827)
 -->
<!-- Title: erd Pages: 1 -->
<svg width="251pt" height="358pt"
 viewBox="0.00 0.00 251.00 357.75" xmlns="http://www.w3.org/2000/svg" xmlns:xlink="http://www.w3.org/1999/xlink">
<g id="graph0" class="graph" transform="scale(1 1) rotate(0) translate(4 353.75)">
<title>erd</title>
<polygon fill="white" stroke="none" points="-4,4 -4,-353.75 247,-353.75 247,4 -4,4"/>
<text text-anchor="middle" x="121.5" y="-317.25" font-family="Times,serif" font-size="30.00" fill="blue">users</text>
<!-- users -->
<g id="node1" class="node">
<title>users</title>
<polygon fill="#009879" stroke="none" points="0,-75 0,-105 243,-105 243,-75 0,-75"/>
<polygon fill="none" stroke="black" points="0,-75 0,-105 243,-105 243,-75 0,-75"/>
<text text-anchor="start" x="91.5" y="-84" font-family="Courier bold italic" font-weight="bold" font-size="20.00" fill="white">users</text>
<polygon fill="none" stroke="black" points="0,-48 0,-75 69,-75 69,-48 0,-48"/>
<text text-anchor="start" x="3" y="-55.9" font-family="Courier bold" font-weight="bold" font-size="18.00">Column</text>
<polygon fill="none" stroke="black" points="69,-48 69,-75 122,-75 122,-48 69,-48"/>
<text text-anchor="start" x="74.5" y="-55.9" font-family="Courier bold" font-weight="bold" font-size="18.00">Type</text>
<polygon fill="none" stroke="black" points="122,-48 122,-75 243,-75 243,-48 122,-48"/>
<text text-anchor="start" x="124.75" y="-55.9" font-family="Courier bold" font-weight="bold" font-size="18.00">Description</text>
<polygon fill="#54ff9f" stroke="none" points="0,-24 0,-48 69,-48 69,-24 0,-24"/>
<polygon fill="none" stroke="black" points="0,-24 0,-48 69,-48 69,-24 0,-24"/>
<text text-anchor="start" x="3" y="-29.8" font-family="Times,serif" font-size="16.00">name</text>
<polygon fill="#54ff9f" stroke="none" points="69,-24 69,-48 122,-48 122,-24 69,-24"/>
<polygon fill="none" stroke="black" points="69,-24 69,-48 122,-48 122,-24 69,-24"/>
<text text-anchor="start" x="71.88" y="-29.8" font-family="Times,serif" font-size="16.00">varchar</text>
<polygon fill="#54ff9f" stroke="none" points="122,-24 122,-48 243,-48 243,-24 122,-24"/>
<polygon fill="none" stroke="black" points="122,-24 122,-48 243,-48 243,-24 122,-24"/>
<text text-anchor="start" x="125" y="-31.95" font-family="Monospace" font-style="italic" font-size="14.00" fill="#7f7f7f">none</text>
<polygon fill="none" stroke="black" points="0,0 0,-24 69,-24 69,0 0,0"/>
<text text-anchor="start" x="3" y="-5.8" font-family="Times,serif" font-size="16.00">age</text>
<polygon fill="none" stroke="black" points="69,0 69,-24 122,-24 122,0 69,0"/>
<text text-anchor="start" x="73.38" y="-5.8" font-family="Times,serif" font-size="16.00">integer</text>
<polygon fill="none" stroke="black" points="122,0 122,-24 243,-24 243,0 122,0"/>
<text text-anchor="start" x="125" y="-7.95" font-family="Monospace" font-style="italic" font-size="14.00" fill="#7f7f7f">none</text>
</g>
<!-- LEGEND -->
<g id="node2" class="node">
<title>LEGEND</title>
<polygon fill="Pink" stroke="none" points="12.5,-274 12.5,-304 230.5,-304 230.5,-274 12.5,-274"/>
<polygon fill="none" stroke="black" points="12.5,-274 12.5,-304 230.5,-304 230.5,-274 12.5,-274"/>
<text text-anchor="start" x="85.5" y="-283" font-family="Courier bold italic" font-weight="bold" font-size="20.00" fill="white">LEGEND</text>
<polygon fill="none" stroke="black" points="12.5,-247 12.5,-274 150.5,-274 150.5,-247 12.5,-247"/>
<text text-anchor="start" x="60.5" y="-254.9" font-family="Courier bold" font-weight="bold" font-size="18.00">Type</text>
<polygon fill="none" stroke="black" points="150.5,-247 150.5,-274 230.5,-274 230.5,-247 150.5,-247"/>
<text text-anchor="start" x="153.75" y="-254.9" font-family="Courier bold" font-weight="bold" font-size="18.00">Example</text>
<polygon fill="#54ff9f" stroke="none" points="12.5,-223 12.5,-247 150.5,-247 150.5,-223 12.5,-223"/>
<polygon fill="none" stroke="black" points="12.5,-223 12.5,-247 150.5,-247 150.5,-223 12.5,-223"/>
<text text-anchor="start" x="15.5" y="-228.8" font-family="Times,serif" font-size="16.00">Primary Key</text>
<polygon fill="#54ff9f" stroke="none" points="150.5,-223 150.5,-247 230.5,-247 230.5,-223 150.5,-223"/>
<polygon fill="none" stroke="black" points="150.5,-223 150.5,-247 230.5,-247 230.5,-223 150.5,-223"/>
<text text-anchor="start" x="163.88" y="-228.8" font-family="Times,serif" font-size="16.00">integer+</text>
<polygon fill="none" stroke="black" points="12.5,-199 12.5,-223 150.5,-223 150.5,-199 12.5,-199"/>
<text text-anchor="start" x="15.5" y="-204.8" font-family="Times,serif" font-size="16.00">Standard Field</text>
<polygon fill="none" stroke="black" points="150.5,-199 150.5,-223 230.5,-223 230.5,-199 150.5,-199"/>
<text text-anchor="start" x="173.25" y="-204.8" font-family="Times,serif" font-size="16.00">bytea</text>
<polygon fill="none" stroke="black" points="12.5,-175 12.5,-199 150.5,-199 150.5,-175 12.5,-175"/>
<text text-anchor="start" x="15.5" y="-180.8" font-family="Times,serif" font-size="16.00">Nullable Field</text>
<polygon fill="none" stroke="black" points="150.5,-175 150.5,-199 230.5,-199 230.5,-175 150.5,-175"/>
<text text-anchor="start" x="179.25" y="-181.8" font-family="Times,serif" font-style="italic" font-size="16.00">text</text>
<polygon fill="none" stroke="black" points="12.5,-151 12.5,-175 150.5,-175 150.5,-151 12.5,-151"/>
<text text-anchor="start" x="15.5" y="-156.8" font-family="Times,serif" font-size="16.00">Sized Field</text>
<polygon fill="none" stroke="black" points="150.5,-151 150.5,-175 230.5,-175 230.5,-151 150.5,-151"/>
<text text-anchor="start" x="153.38" y="-156.8" font-family="Times,serif" font-size="16.00">varchar(32)</text>
<polygon fill="none" stroke="black" points="12.5,-127 12.5,-151 150.5,-151 150.5,-127 12.5,-127"/>
<text text-anchor="start" x="15.5" y="-132.8" font-family="Times,serif" font-size="16.00">Autoincrement Field</text>
<polygon fill="none" stroke="black" points="150.5,-127 150.5,-151 230.5,-151 230.5,-127 150.5,-127"/>
<text text-anchor="start" x="163.88" y="-132.8" font-family="Times,serif" font-size="16.00">integer+</text>
</g>
</g>
</svg>
