<?xml version="1.0" encoding="UTF-8" standalone="no"?>
<!DOCTYPE svg PUBLIC "-//W3C//DTD SVG 1.1//EN"
 "http://www.w3.org/Graphics/SVG/1.1/DTD/svg11.dtd">
<!-- Generated by graphviz version 2.43.0 (0)
 -->
<!-- Title: erd Pages: 1 -->
<svg width="254pt" height="351pt"
 viewBox="0.00 0.00 254.00 351.00" xmlns="http://www.w3.org/2000/svg" xmlns:xlink="http://www.w3.org/1999/xlink">
<g id="graph0" class="graph" transform="scale(1 1) rotate(0) translate(4 347)">
<title>erd</title>
<polygon fill="white" stroke="transparent" points="-4,4 -4,-347 250,-347 250,4 -4,4"/>
<text text-anchor="middle" x="123" y="-315" font-family="Times,serif" font-size="30.00" fill="blue">users</text>
<!-- users -->
<g id="node1" class="node">
<title>users</title>
<polygon fill="#009879" stroke="transparent" points="0,-74 0,-102 246,-102 246,-74 0,-74"/>
<polygon fill="none" stroke="black" points="0,-74 0,-102 246,-102 246,-74 0,-74"/>
<text text-anchor="start" x="92.5" y="-84" font-family="Courier bold italic" font-weight="bold" font-size="20.00" fill="white">users</text>
<polygon fill="none" stroke="black" points="0,-48 0,-74 70,-74 70,-48 0,-48"/>
<text text-anchor="start" x="3" y="-57.6" font-family="Courier bold" font-weight="bold" font-size="18.00">Column</text>
<polygon fill="none" stroke="black" points="70,-48 70,-74 124,-74 124,-48 70,-48"/>
<text text-anchor="start" x="75.5" y="-57.6" font-family="Courier bold" font-weight="bold" font-size="18.00">Type</text>
<polygon fill="none" stroke="black" points="124,-48 124,-74 246,-74 246,-48 124,-48"/>
<text text-anchor="start" x="127" y="-57.6" font-family="Courier bold" font-weight="bold" font-size="18.00">Description</text>
<polygon fill="#54ff9f" stroke="transparent" points="0,-24 0,-48 70,-48 70,-24 0,-24"/>
<polygon fill="none" stroke="black" points="0,-24 0,-48 70,-48 70,-24 0,-24"/>
<text text-anchor="start" x="3" y="-32.2" font-family="Times,serif" font-size="16.00">name</text>
<polygon fill="#54ff9f" stroke="transparent" points="70,-24 70,-48 124,-48 124,-24 70,-24"/>
<polygon fill="none" stroke="black" points="70,-24 70,-48 124,-48 124,-24 70,-24"/>
<text text-anchor="start" x="73" y="-32.2" font-family="Times,serif" font-size="16.00">varchar</text>
<polygon fill="#54ff9f" stroke="transparent" points="124,-24 124,-48 246,-48 246,-24 124,-24"/>
<polygon fill="none" stroke="black" points="124,-24 124,-48 246,-48 246,-24 124,-24"/>
<text text-anchor="start" x="127" y="-33.3" font-family="Monospace" font-style="italic" font-size="14.00" fill="#7f7f7f">none</text>
<polygon fill="none" stroke="black" points="0,0 0,-24 70,-24 70,0 0,0"/>
<text text-anchor="start" x="3" y="-8.2" font-family="Times,serif" font-size="16.00">age</text>
<polygon fill="none" stroke="black" points="70,0 70,-24 124,-24 124,0 70,0"/>
<text text-anchor="start" x="74.5" y="-8.2" font-family="Times,serif" font-size="16.00">integer</text>
<polygon fill="none" stroke="black" points="124,0 124,-24 246,-24 246,0 124,0"/>
<text text-anchor="start" x="127" y="-9.3" font-family="Monospace" font-style="italic" font-size="14.00" fill="#7f7f7f">none</text>
</g>
<!-- LEGEND -->
<g id="node2" class="node">
<title>LEGEND</title>
<polygon fill="Pink" stroke="transparent" points="13,-270 13,-298 233,-298 233,-270 13,-270"/>
<polygon fill="none" stroke="black" points="13,-270 13,-298 233,-298 233,-270 13,-270"/>
<text text-anchor="start" x="86.5" y="-280" font-family="Courier bold italic" font-weight="bold" font-size="20.00" fill="white">LEGEND</text>
<polygon fill="none" stroke="black" points="13,-244 13,-270 152,-270 152,-244 13,-244"/>
<text text-anchor="start" x="61" y="-253.6" font-family="Courier bold" font-weight="bold" font-size="18.00">Type</text>
<polygon fill="none" stroke="black" points="152,-244 152,-270 233,-270 233,-244 152,-244"/>
<text text-anchor="start" x="155.5" y="-253.6" font-family="Courier bold" font-weight="bold" font-size="18.00">Example</text>
<polygon fill="#54ff9f" stroke="transparent" points="13,-220 13,-244 152,-244 152,-220 13,-220"/>
<polygon fill="none" stroke="black" points="13,-220 13,-244 152,-244 152,-220 13,-220"/>
<text text-anchor="start" x="16" y="-228.2" font-family="Times,serif" font-size="16.00">Primary Key</text>
<polygon fill="#54ff9f" stroke="transparent" points="152,-220 152,-244 233,-244 233,-220 152,-220"/>
<polygon fill="none" stroke="black" points="152,-220 152,-244 233,-244 233,-220 152,-220"/>
<text text-anchor="start" x="165.5" y="-228.2" font-family="Times,serif" font-size="16.00">integer+</text>
<polygon fill="none" stroke="black" points="13,-196 13,-220 152,-220 152,-196 13,-196"/>
<text text-anchor="start" x="16" y="-204.2" font-family="Times,serif" font-size="16.00">Standard Field</text>
<polygon fill="none" stroke="black" points="152,-196 152,-220 233,-220 233,-196 152,-196"/>
<text text-anchor="start" x="175" y="-204.2" font-family="Times,serif" font-size="16.00">bytea</text>
<polygon fill="none" stroke="black" points="13,-172 13,-196 152,-196 152,-172 13,-172"/>
<text text-anchor="start" x="16" y="-180.2" font-family="Times,serif" font-size="16.00">Nullable Field</text>
<polygon fill="none" stroke="black" points="152,-172 152,-196 233,-196 233,-172 152,-172"/>
<text text-anchor="start" x="181" y="-181.2" font-family="Times,serif" font-style="italic" font-size="16.00">text</text>
<polygon fill="none" stroke="black" points="13,-148 13,-172 152,-172 152,-148 13,-148"/>
<text text-anchor="start" x="16" y="-156.2" font-family="Times,serif" font-size="16.00">Sized Field</text>
<polygon fill="none" stroke="black" points="152,-148 152,-172 233,-172 233,-148 152,-148"/>
<text text-anchor="start" x="155" y="-156.2" font-family="Times,serif" font-size="16.00">varchar(32)</text>
<polygon fill="none" stroke="black" points="13,-124 13,-148 152,-148 152,-124 13,-124"/>
<text text-anchor="start" x="16" y="-132.2" font-family="Times,serif" font-size="16.00">Autoincrement Field</text>
<polygon fill="none" stroke="black" points="152,-124 152,-148 233,-148 233,-124 152,-124"/>
<text text-anchor="start" x="165.5" y="-132.2" font-family="Times,serif" font-size="16.00">integer+</text>
</g>
</g>
</svg>
