<?xml version="1.0" encoding="UTF-8" standalone="no"?>
<!DOCTYPE svg PUBLIC "-//W3C//DTD SVG 1.1//EN"
 "http://www.w3.org/Graphics/SVG/1.1/DTD/svg11.dtd">
<!-- Generated by graphviz version 9.0.0 (20230911.1827)
 -->
<!-- Title: erd Pages: 1 -->
<svg width="375pt" height="360pt"
 viewBox="0.00 0.00 375.00 359.75" xmlns="http://www.w3.org/2000/svg" xmlns:xlink="http://www.w3.org/1999/xlink">
<g id="graph0" class="graph" transform="scale(1 1) rotate(0) translate(4 355.75)">
<title>erd</title>
<polygon fill="white" stroke="none" points="-4,4 -4,-355.75 371,-355.75 371,4 -4,4"/>
<text text-anchor="middle" x="183.5" y="-319.25" font-family="Times,serif" font-size="30.00" fill="blue">addresses</text>
<!-- address -->
<g id="node1" class="node">
<title>address</title>
<polygon fill="#009879" stroke="none" points="0,-77 0,-107 243,-107 243,-77 0,-77"/>
<polygon fill="none" stroke="black" points="0,-77 0,-107 243,-107 243,-77 0,-77"/>
<text text-anchor="start" x="79.5" y="-86" font-family="Courier bold italic" font-weight="bold" font-size="20.00" fill="white">address</text>
<polygon fill="none" stroke="black" points="0,-50 0,-77 69,-77 69,-50 0,-50"/>
<text text-anchor="start" x="3" y="-57.9" font-family="Courier bold" font-weight="bold" font-size="18.00">Column</text>
<polygon fill="none" stroke="black" points="69,-50 69,-77 122,-77 122,-50 69,-50"/>
<text text-anchor="start" x="74.5" y="-57.9" font-family="Courier bold" font-weight="bold" font-size="18.00">Type</text>
<polygon fill="none" stroke="black" points="122,-50 122,-77 243,-77 243,-50 122,-50"/>
<text text-anchor="start" x="124.75" y="-57.9" font-family="Courier bold" font-weight="bold" font-size="18.00">Description</text>
<polygon fill="#54ff9f" stroke="none" points="0,-26 0,-50 69,-50 69,-26 0,-26"/>
<polygon fill="none" stroke="black" points="0,-26 0,-50 69,-50 69,-26 0,-26"/>
<text text-anchor="start" x="3" y="-31.8" font-family="Times,serif" font-size="16.00">name</text>
<polygon fill="#54ff9f" stroke="none" points="69,-26 69,-50 122,-50 122,-26 69,-26"/>
<polygon fill="none" stroke="black" points="69,-26 69,-50 122,-50 122,-26 69,-26"/>
<text text-anchor="start" x="71.88" y="-31.8" font-family="Times,serif" font-size="16.00">varchar</text>
<polygon fill="#54ff9f" stroke="none" points="122,-26 122,-50 243,-50 243,-26 122,-26"/>
<polygon fill="none" stroke="black" points="122,-26 122,-50 243,-50 243,-26 122,-26"/>
<text text-anchor="start" x="125" y="-33.95" font-family="Monospace" font-style="italic" font-size="14.00" fill="#7f7f7f">none</text>
<polygon fill="none" stroke="black" points="0,-2 0,-26 69,-26 69,-2 0,-2"/>
<text text-anchor="start" x="3" y="-7.8" font-family="Times,serif" font-size="16.00">address</text>
<polygon fill="none" stroke="black" points="69,-2 69,-26 122,-26 122,-2 69,-2"/>
<text text-anchor="start" x="83.5" y="-7.8" font-family="Times,serif" font-size="16.00">text</text>
<polygon fill="none" stroke="black" points="122,-2 122,-26 243,-26 243,-2 122,-2"/>
<text text-anchor="start" x="125" y="-9.95" font-family="Monospace" font-style="italic" font-size="14.00" fill="#7f7f7f">none</text>
</g>
<!-- users -->
<g id="node2" class="node">
<title>users</title>
<polygon fill="#009879" stroke="none" points="287,-77 287,-107 357,-107 357,-77 287,-77"/>
<polygon fill="none" stroke="black" points="287,-77 287,-107 357,-107 357,-77 287,-77"/>
<text text-anchor="start" x="292" y="-86" font-family="Courier bold italic" font-weight="bold" font-size="20.00" fill="white">users</text>
<polygon fill="none" stroke="black" points="287,-50 287,-77 357,-77 357,-50 287,-50"/>
<text text-anchor="start" x="290.5" y="-57.9" font-family="Courier bold" font-weight="bold" font-size="18.00">Column</text>
<polygon fill="none" stroke="black" points="287,-26 287,-50 357,-50 357,-26 287,-26"/>
<text text-anchor="start" x="290" y="-31.8" font-family="Times,serif" font-size="16.00">name</text>
<polygon fill="#333333" stroke="none" points="287,-4 287,-26 359,-26 359,-4 287,-4"/>
<polygon fill="none" stroke="black" points="287,-4 287,-26 359,-26 359,-4 287,-4"/>
<text text-anchor="start" x="290" y="-10.7" font-family="Monospace" font-style="italic" font-size="14.00" fill="white">ABRIDGED</text>
</g>
<!-- address&#45;&gt;users -->
<g id="edge1" class="edge">
<title>address:name_out&#45;&gt;users:name</title>
<path fill="none" stroke="black" d="M243,-37.5C257.63,-37.5 263.86,-37.5 274.56,-37.5"/>
<polygon fill="black" stroke="black" points="274.49,-41 284.49,-37.5 274.49,-34 274.49,-41"/>
</g>
<!-- LEGEND -->
<g id="node3" class="node">
<title>LEGEND</title>
<polygon fill="Pink" stroke="none" points="12.5,-276 12.5,-306 230.5,-306 230.5,-276 12.5,-276"/>
<polygon fill="none" stroke="black" points="12.5,-276 12.5,-306 230.5,-306 230.5,-276 12.5,-276"/>
<text text-anchor="start" x="85.5" y="-285" font-family="Courier bold italic" font-weight="bold" font-size="20.00" fill="white">LEGEND</text>
<polygon fill="none" stroke="black" points="12.5,-249 12.5,-276 150.5,-276 150.5,-249 12.5,-249"/>
<text text-anchor="start" x="60.5" y="-256.9" font-family="Courier bold" font-weight="bold" font-size="18.00">Type</text>
<polygon fill="none" stroke="black" points="150.5,-249 150.5,-276 230.5,-276 230.5,-249 150.5,-249"/>
<text text-anchor="start" x="153.75" y="-256.9" font-family="Courier bold" font-weight="bold" font-size="18.00">Example</text>
<polygon fill="#54ff9f" stroke="none" points="12.5,-225 12.5,-249 150.5,-249 150.5,-225 12.5,-225"/>
<polygon fill="none" stroke="black" points="12.5,-225 12.5,-249 150.5,-249 150.5,-225 12.5,-225"/>
<text text-anchor="start" x="15.5" y="-230.8" font-family="Times,serif" font-size="16.00">Primary Key</text>
<polygon fill="#54ff9f" stroke="none" points="150.5,-225 150.5,-249 230.5,-249 230.5,-225 150.5,-225"/>
<polygon fill="none" stroke="black" points="150.5,-225 150.5,-249 230.5,-249 230.5,-225 150.5,-225"/>
<text text-anchor="start" x="163.88" y="-230.8" font-family="Times,serif" font-size="16.00">integer+</text>
<polygon fill="none" stroke="black" points="12.5,-201 12.5,-225 150.5,-225 150.5,-201 12.5,-201"/>
<text text-anchor="start" x="15.5" y="-206.8" font-family="Times,serif" font-size="16.00">Standard Field</text>
<polygon fill="none" stroke="black" points="150.5,-201 150.5,-225 230.5,-225 230.5,-201 150.5,-201"/>
<text text-anchor="start" x="173.25" y="-206.8" font-family="Times,serif" font-size="16.00">bytea</text>
<polygon fill="none" stroke="black" points="12.5,-177 12.5,-201 150.5,-201 150.5,-177 12.5,-177"/>
<text text-anchor="start" x="15.5" y="-182.8" font-family="Times,serif" font-size="16.00">Nullable Field</text>
<polygon fill="none" stroke="black" points="150.5,-177 150.5,-201 230.5,-201 230.5,-177 150.5,-177"/>
<text text-anchor="start" x="179.25" y="-183.8" font-family="Times,serif" font-style="italic" font-size="16.00">text</text>
<polygon fill="none" stroke="black" points="12.5,-153 12.5,-177 150.5,-177 150.5,-153 12.5,-153"/>
<text text-anchor="start" x="15.5" y="-158.8" font-family="Times,serif" font-size="16.00">Sized Field</text>
<polygon fill="none" stroke="black" points="150.5,-153 150.5,-177 230.5,-177 230.5,-153 150.5,-153"/>
<text text-anchor="start" x="153.38" y="-158.8" font-family="Times,serif" font-size="16.00">varchar(32)</text>
<polygon fill="none" stroke="black" points="12.5,-129 12.5,-153 150.5,-153 150.5,-129 12.5,-129"/>
<text text-anchor="start" x="15.5" y="-134.8" font-family="Times,serif" font-size="16.00">Autoincrement Field</text>
<polygon fill="none" stroke="black" points="150.5,-129 150.5,-153 230.5,-153 230.5,-129 150.5,-129"/>
<text text-anchor="start" x="163.88" y="-134.8" font-family="Times,serif" font-size="16.00">integer+</text>
</g>
</g>
</svg>
