<?xml version="1.0" encoding="UTF-8" standalone="no"?>
<!DOCTYPE svg PUBLIC "-//W3C//DTD SVG 1.1//EN"
 "http://www.w3.org/Graphics/SVG/1.1/DTD/svg11.dtd">
<!-- Generated by graphviz version 2.43.0 (0)
 -->
<!-- Title: erd Pages: 1 -->
<svg width="379pt" height="352pt"
 viewBox="0.00 0.00 379.00 351.50" xmlns="http://www.w3.org/2000/svg" xmlns:xlink="http://www.w3.org/1999/xlink">
<g id="graph0" class="graph" transform="scale(1 1) rotate(0) translate(4 347.5)">
<title>erd</title>
<polygon fill="white" stroke="transparent" points="-4,4 -4,-347.5 375,-347.5 375,4 -4,4"/>
<text text-anchor="middle" x="185.5" y="-315.5" font-family="Times,serif" font-size="30.00" fill="blue">addresses</text>
<!-- address -->
<g id="node1" class="node">
<title>address</title>
<polygon fill="#009879" stroke="transparent" points="0,-74.5 0,-102.5 246,-102.5 246,-74.5 0,-74.5"/>
<polygon fill="none" stroke="black" points="0,-74.5 0,-102.5 246,-102.5 246,-74.5 0,-74.5"/>
<text text-anchor="start" x="80.5" y="-84.5" font-family="Courier bold italic" font-weight="bold" font-size="20.00" fill="white">address</text>
<polygon fill="none" stroke="black" points="0,-48.5 0,-74.5 70,-74.5 70,-48.5 0,-48.5"/>
<text text-anchor="start" x="3" y="-58.1" font-family="Courier bold" font-weight="bold" font-size="18.00">Column</text>
<polygon fill="none" stroke="black" points="70,-48.5 70,-74.5 124,-74.5 124,-48.5 70,-48.5"/>
<text text-anchor="start" x="75.5" y="-58.1" font-family="Courier bold" font-weight="bold" font-size="18.00">Type</text>
<polygon fill="none" stroke="black" points="124,-48.5 124,-74.5 246,-74.5 246,-48.5 124,-48.5"/>
<text text-anchor="start" x="127" y="-58.1" font-family="Courier bold" font-weight="bold" font-size="18.00">Description</text>
<polygon fill="#54ff9f" stroke="transparent" points="0,-24.5 0,-48.5 70,-48.5 70,-24.5 0,-24.5"/>
<polygon fill="none" stroke="black" points="0,-24.5 0,-48.5 70,-48.5 70,-24.5 0,-24.5"/>
<text text-anchor="start" x="3" y="-32.7" font-family="Times,serif" font-size="16.00">name</text>
<polygon fill="#54ff9f" stroke="transparent" points="70,-24.5 70,-48.5 124,-48.5 124,-24.5 70,-24.5"/>
<polygon fill="none" stroke="black" points="70,-24.5 70,-48.5 124,-48.5 124,-24.5 70,-24.5"/>
<text text-anchor="start" x="73" y="-32.7" font-family="Times,serif" font-size="16.00">varchar</text>
<polygon fill="#54ff9f" stroke="transparent" points="124,-24.5 124,-48.5 246,-48.5 246,-24.5 124,-24.5"/>
<polygon fill="none" stroke="black" points="124,-24.5 124,-48.5 246,-48.5 246,-24.5 124,-24.5"/>
<text text-anchor="start" x="127" y="-33.8" font-family="Monospace" font-style="italic" font-size="14.00" fill="#7f7f7f">none</text>
<polygon fill="none" stroke="black" points="0,-0.5 0,-24.5 70,-24.5 70,-0.5 0,-0.5"/>
<text text-anchor="start" x="3" y="-8.7" font-family="Times,serif" font-size="16.00">address</text>
<polygon fill="none" stroke="black" points="70,-0.5 70,-24.5 124,-24.5 124,-0.5 70,-0.5"/>
<text text-anchor="start" x="84.5" y="-8.7" font-family="Times,serif" font-size="16.00">text</text>
<polygon fill="none" stroke="black" points="124,-0.5 124,-24.5 246,-24.5 246,-0.5 124,-0.5"/>
<text text-anchor="start" x="127" y="-9.8" font-family="Monospace" font-style="italic" font-size="14.00" fill="#7f7f7f">none</text>
</g>
<!-- users -->
<g id="node2" class="node">
<title>users</title>
<polygon fill="#009879" stroke="transparent" points="290.5,-74.5 290.5,-102.5 361.5,-102.5 361.5,-74.5 290.5,-74.5"/>
<polygon fill="none" stroke="black" points="290.5,-74.5 290.5,-102.5 361.5,-102.5 361.5,-74.5 290.5,-74.5"/>
<text text-anchor="start" x="295.5" y="-84.5" font-family="Courier bold italic" font-weight="bold" font-size="20.00" fill="white">users</text>
<polygon fill="none" stroke="black" points="290.5,-48.5 290.5,-74.5 361.5,-74.5 361.5,-48.5 290.5,-48.5"/>
<text text-anchor="start" x="294" y="-58.1" font-family="Courier bold" font-weight="bold" font-size="18.00">Column</text>
<polygon fill="none" stroke="black" points="290.5,-24.5 290.5,-48.5 361.5,-48.5 361.5,-24.5 290.5,-24.5"/>
<text text-anchor="start" x="293.5" y="-32.7" font-family="Times,serif" font-size="16.00">name</text>
<polygon fill="#333333" stroke="transparent" points="290.5,-3.5 290.5,-24.5 363.5,-24.5 363.5,-3.5 290.5,-3.5"/>
<polygon fill="none" stroke="black" points="290.5,-3.5 290.5,-24.5 363.5,-24.5 363.5,-3.5 290.5,-3.5"/>
<text text-anchor="start" x="293.5" y="-11.3" font-family="Monospace" font-style="italic" font-size="14.00" fill="white">ABRIDGED</text>
</g>
<!-- address&#45;&gt;users -->
<g id="edge1" class="edge">
<title>address:name_out&#45;&gt;users:name</title>
<path fill="none" stroke="black" d="M246,-36.5C261.41,-36.5 267.6,-36.5 279.27,-36.5"/>
<polygon fill="black" stroke="black" points="279.5,-40 289.5,-36.5 279.5,-33 279.5,-40"/>
</g>
<!-- LEGEND -->
<g id="node3" class="node">
<title>LEGEND</title>
<polygon fill="Pink" stroke="transparent" points="13,-270.5 13,-298.5 233,-298.5 233,-270.5 13,-270.5"/>
<polygon fill="none" stroke="black" points="13,-270.5 13,-298.5 233,-298.5 233,-270.5 13,-270.5"/>
<text text-anchor="start" x="86.5" y="-280.5" font-family="Courier bold italic" font-weight="bold" font-size="20.00" fill="white">LEGEND</text>
<polygon fill="none" stroke="black" points="13,-244.5 13,-270.5 152,-270.5 152,-244.5 13,-244.5"/>
<text text-anchor="start" x="61" y="-254.1" font-family="Courier bold" font-weight="bold" font-size="18.00">Type</text>
<polygon fill="none" stroke="black" points="152,-244.5 152,-270.5 233,-270.5 233,-244.5 152,-244.5"/>
<text text-anchor="start" x="155.5" y="-254.1" font-family="Courier bold" font-weight="bold" font-size="18.00">Example</text>
<polygon fill="#54ff9f" stroke="transparent" points="13,-220.5 13,-244.5 152,-244.5 152,-220.5 13,-220.5"/>
<polygon fill="none" stroke="black" points="13,-220.5 13,-244.5 152,-244.5 152,-220.5 13,-220.5"/>
<text text-anchor="start" x="16" y="-228.7" font-family="Times,serif" font-size="16.00">Primary Key</text>
<polygon fill="#54ff9f" stroke="transparent" points="152,-220.5 152,-244.5 233,-244.5 233,-220.5 152,-220.5"/>
<polygon fill="none" stroke="black" points="152,-220.5 152,-244.5 233,-244.5 233,-220.5 152,-220.5"/>
<text text-anchor="start" x="165.5" y="-228.7" font-family="Times,serif" font-size="16.00">integer+</text>
<polygon fill="none" stroke="black" points="13,-196.5 13,-220.5 152,-220.5 152,-196.5 13,-196.5"/>
<text text-anchor="start" x="16" y="-204.7" font-family="Times,serif" font-size="16.00">Standard Field</text>
<polygon fill="none" stroke="black" points="152,-196.5 152,-220.5 233,-220.5 233,-196.5 152,-196.5"/>
<text text-anchor="start" x="175" y="-204.7" font-family="Times,serif" font-size="16.00">bytea</text>
<polygon fill="none" stroke="black" points="13,-172.5 13,-196.5 152,-196.5 152,-172.5 13,-172.5"/>
<text text-anchor="start" x="16" y="-180.7" font-family="Times,serif" font-size="16.00">Nullable Field</text>
<polygon fill="none" stroke="black" points="152,-172.5 152,-196.5 233,-196.5 233,-172.5 152,-172.5"/>
<text text-anchor="start" x="181" y="-181.7" font-family="Times,serif" font-style="italic" font-size="16.00">text</text>
<polygon fill="none" stroke="black" points="13,-148.5 13,-172.5 152,-172.5 152,-148.5 13,-148.5"/>
<text text-anchor="start" x="16" y="-156.7" font-family="Times,serif" font-size="16.00">Sized Field</text>
<polygon fill="none" stroke="black" points="152,-148.5 152,-172.5 233,-172.5 233,-148.5 152,-148.5"/>
<text text-anchor="start" x="155" y="-156.7" font-family="Times,serif" font-size="16.00">varchar(32)</text>
<polygon fill="none" stroke="black" points="13,-124.5 13,-148.5 152,-148.5 152,-124.5 13,-124.5"/>
<text text-anchor="start" x="16" y="-132.7" font-family="Times,serif" font-size="16.00">Autoincrement Field</text>
<polygon fill="none" stroke="black" points="152,-124.5 152,-148.5 233,-148.5 233,-124.5 152,-124.5"/>
<text text-anchor="start" x="165.5" y="-132.7" font-family="Times,serif" font-size="16.00">integer+</text>
</g>
</g>
</svg>
